<svg width="443" height="352" viewBox="0 0 443 352" fill="none" xmlns="http://www.w3.org/2000/svg">
<path opacity="0.1" d="M53.1871 42.0467C57.2869 18.0258 78.1061 0.458984 102.474 0.458984H392.285C419.899 0.458984 442.285 22.8448 442.285 50.459V302C442.285 329.614 419.899 352 392.285 352H59.5421C28.5661 352 5.04325 324.122 10.2548 293.588L53.1871 42.0467Z" fill="#68C9BA"/>
<path d="M392.433 115.635C414.713 140.078 391.629 160.889 348.487 158.789C262.276 147.862 238.058 71.9902 243.459 55.657C248.861 39.3239 268.151 40.076 298.989 75.9672C329.827 111.858 364.583 85.0818 392.433 115.635Z" stroke="white" stroke-width="1.5"/>
<ellipse rx="16.8103" ry="9.79873" transform="matrix(0.93743 0.348173 -0.359442 0.933167 305.634 58.5419)" stroke="white" stroke-width="1.5"/>
</svg>
