<svg width="443" height="369" viewBox="0 0 443 369" fill="none" xmlns="http://www.w3.org/2000/svg">
<path opacity="0.1" d="M53.3662 47.9283C57.357 23.7894 78.2299 6.08398 102.697 6.08398H392.284C419.898 6.08398 442.284 28.4697 442.284 56.084V319C442.284 346.614 419.898 369 392.284 369H59.2293C28.3587 369 4.86351 341.302 9.89891 310.844L53.3662 47.9283Z" fill="#2D9CDB"/>
<ellipse rx="30.9783" ry="18.4935" transform="matrix(0.933716 0.358014 -0.349572 0.936909 382.674 316.317)" stroke="white" stroke-width="1.5"/>
<path d="M108.726 257.196C48.1914 269.571 33.5671 204.566 74.9576 129.445C168.954 -13.0535 317.406 29.2618 340.045 57.4392C362.685 85.6167 344.491 119.416 257.252 134.213C170.014 149.01 184.393 241.728 108.726 257.196Z" stroke="white" stroke-width="1.5"/>
</svg>
